<?xml version="1.0" standalone="no"?>
<!DOCTYPE svg PUBLIC "-//W3C//DTD SVG 20010904//EN"
 "http://www.w3.org/TR/2001/REC-SVG-20010904/DTD/svg10.dtd">
<svg version="1.0" xmlns="http://www.w3.org/2000/svg"
 width="700.000000pt" height="700.000000pt" viewBox="0 0 700.000000 700.000000"
 preserveAspectRatio="xMidYMid meet">
<metadata>
Created by potrace 1.11, written by Peter Selinger 2001-2013
</metadata>
<g transform="translate(0.000000,700.000000) scale(0.100000,-0.100000)"
fill="#000000" stroke="none">
<path d="M5447 6984 c-84 -20 -154 -52 -223 -100 -62 -43 -154 -137 -154 -157
0 -7 -68 -8 -212 -4 -633 17 -1225 -60 -1693 -220 -158 -54 -436 -189 -565
-273 -336 -221 -580 -514 -709 -850 -53 -138 -87 -274 -102 -407 l-13 -108
-61 -70 c-92 -105 -150 -192 -204 -307 -110 -235 -130 -478 -57 -728 l22 -76
-65 -23 c-183 -64 -345 -229 -456 -463 -274 -580 -163 -1402 238 -1763 68 -62
215 -139 283 -150 l42 -6 7 -67 c49 -458 467 -898 1038 -1092 243 -82 446
-114 727 -114 212 0 324 11 500 50 546 122 994 447 1179 856 41 89 77 217 86
300 l7 67 42 6 c22 4 82 27 133 51 237 114 427 408 503 781 136 675 -128 1389
-571 1544 l-66 23 19 60 c114 365 23 734 -258 1052 l-64 71 -10 89 c-20 182
-56 329 -119 491 -75 192 -168 345 -291 476 -38 41 -70 78 -70 81 0 13 202
138 282 175 146 67 366 130 373 107 2 -6 13 -42 24 -81 33 -115 108 -229 199
-302 252 -201 600 -183 826 43 245 245 243 631 -4 875 -145 144 -372 209 -563
163z m268 -151 c287 -88 421 -421 276 -683 -33 -59 -124 -149 -185 -183 -310
-172 -696 55 -697 409 -1 136 43 243 137 338 125 125 303 170 469 119z m-2180
-1588 c202 -24 346 -54 495 -100 501 -159 867 -490 971 -880 30 -112 30 -307
0 -420 -12 -43 -25 -83 -29 -86 -4 -4 -41 20 -83 55 -365 300 -752 396 -1599
396 -847 0 -1234 -96 -1599 -396 -42 -35 -79 -59 -83 -55 -4 3 -17 43 -29 86
-30 113 -30 308 0 420 77 289 305 556 626 732 365 201 898 301 1330 248z m107
-1186 c112 -6 228 -14 258 -18 l55 -7 -74 -7 c-41 -4 -93 -16 -116 -26 -192
-85 -239 -335 -89 -483 55 -56 115 -81 205 -86 l77 -4 -20 -57 c-63 -178 78
-371 273 -371 122 0 226 72 269 188 25 66 25 128 1 192 l-19 50 64 0 c130 0
249 78 291 189 l18 49 43 -37 43 -37 -16 -75 c-59 -281 -288 -479 -668 -579
-124 -33 -250 -55 -373 -66 l-82 -6 -12 38 c-33 102 -113 207 -204 266 -277
179 -657 46 -756 -266 l-12 -38 -82 6 c-493 42 -856 221 -985 487 -22 46 -47
118 -56 158 l-16 75 43 37 43 37 18 -49 c42 -111 161 -189 291 -189 l64 0 -19
-50 c-24 -64 -24 -126 1 -192 28 -74 70 -122 142 -157 181 -91 389 24 413 229
5 42 2 69 -13 112 l-20 56 77 4 c90 5 150 30 205 86 125 123 117 322 -15 436
-52 44 -103 64 -194 74 l-70 8 90 9 c270 24 627 30 927 14z m-876 -195 c54
-26 79 -69 79 -136 0 -65 -20 -100 -76 -133 -32 -19 -52 -20 -406 -20 -361 0
-372 1 -400 21 -48 35 -73 82 -73 134 0 55 9 66 101 115 l64 35 338 0 c292 0
344 -2 373 -16z m1807 -10 c29 -14 67 -37 85 -51 28 -21 32 -30 32 -72 0 -53
-25 -99 -73 -135 -28 -20 -39 -21 -400 -21 -354 0 -374 1 -406 20 -56 33 -76
68 -76 133 0 43 6 65 22 88 45 62 53 64 426 64 l338 0 52 -26z m-3049 -326 c2
-7 11 -44 20 -83 73 -298 336 -526 744 -645 l74 -21 -89 -51 c-223 -127 -378
-287 -444 -457 -32 -81 -32 -208 -1 -273 66 -133 198 -199 397 -199 184 0 391
64 572 177 l72 45 48 -34 c115 -82 229 -119 368 -120 139 -1 266 39 377 118
l49 36 72 -45 c181 -113 388 -177 572 -177 199 0 331 66 397 199 32 65 31 192
-1 274 -66 169 -222 329 -445 456 l-88 51 58 16 c414 114 689 352 763 661 18
77 19 79 47 77 44 -4 147 -59 204 -110 147 -132 258 -351 311 -612 26 -127 36
-395 20 -527 -29 -240 -99 -438 -213 -607 -89 -132 -234 -238 -346 -252 -118
-15 -142 -34 -142 -114 0 -130 -59 -317 -146 -463 -67 -112 -256 -302 -384
-387 -237 -158 -530 -262 -847 -301 -113 -14 -393 -14 -506 0 -317 39 -609
143 -847 300 -128 86 -317 276 -384 388 -87 146 -146 333 -146 463 0 80 -24
99 -142 114 -26 3 -79 22 -117 41 -193 96 -352 354 -422 683 -26 125 -37 400
-20 537 51 418 249 751 499 840 47 17 62 17 66 2z m1912 -452 c203 -93 273
-341 146 -525 -41 -60 -123 -122 -186 -141 -50 -15 -162 -15 -212 0 -109 33
-210 142 -240 259 -71 284 224 529 492 407z m-661 -354 c6 -4 16 -34 23 -66
19 -93 65 -180 133 -251 l61 -64 -93 -94 c-101 -100 -170 -150 -289 -208 -235
-114 -480 -131 -598 -43 -102 78 -82 223 52 385 138 167 392 304 636 342 44 7
65 7 75 -1z m1218 -23 c195 -49 408 -178 523 -318 134 -161 153 -308 52 -385
-118 -89 -370 -70 -605 46 -113 56 -183 107 -282 205 l-93 94 61 64 c68 71
114 158 133 251 7 32 17 62 23 67 13 10 91 0 188 -24z"/>
</g>
</svg>
